<svg xmlns="http://www.w3.org/2000/svg" width="50" height="50" viewBox="0 0 50 50"><defs><style>.a,.b{fill:#fff;}.b{opacity:0;}</style></defs><path class="a" d="M3.779,7.73H14.216L17.476.7H16.6l5.457-14.832a1.744,1.744,0,0,0,.1-1.208,1.257,1.257,0,0,0-.6-.742,1.343,1.343,0,0,0-.97-.1,1.833,1.833,0,0,0-1,.714L2.937,5.313a1.969,1.969,0,0,0-.476,1.172,1.19,1.19,0,0,0,.366.888A1.306,1.306,0,0,0,3.779,7.73ZM11.14,23.917l16.644-20.8a1.913,1.913,0,0,0,.476-1.172,1.19,1.19,0,0,0-.366-.888A1.306,1.306,0,0,0,26.942.7H16.523L13.246,7.73h.879L8.668,22.562a1.8,1.8,0,0,0-.1,1.227,1.257,1.257,0,0,0,.6.742,1.312,1.312,0,0,0,.97.092A1.911,1.911,0,0,0,11.14,23.917Z" transform="translate(10.039 20.397)"/><rect class="b" width="50" height="50"/></svg>