<svg xmlns="http://www.w3.org/2000/svg" width="50" height="50" viewBox="0 0 50 50"><defs><style>.a,.b{fill:#fff;}.b{opacity:0;}</style></defs><path class="a" d="M37.755,17.128a10.472,10.472,0,0,0,3.864-.7,9.908,9.908,0,0,0,3.14-1.95,8.976,8.976,0,0,0,2.1-2.893,8.423,8.423,0,0,0,.751-3.534,9.423,9.423,0,0,0-.7-3.616,9.167,9.167,0,0,0-2-3A9.443,9.443,0,0,0,41.82-.633a15.316,15.316,0,0,0-1.007-5.63,13.435,13.435,0,0,0-2.829-4.468,12.794,12.794,0,0,0-4.248-2.93A13.233,13.233,0,0,0,28.49-14.7a12.085,12.085,0,0,0-4.5.8,12.485,12.485,0,0,0-3.552,2.124A15,15,0,0,0,17.8-8.836a6.9,6.9,0,0,0-3.36-.156,7.6,7.6,0,0,0-3.049,1.355A7.757,7.757,0,0,0,9.172-5.073,7.442,7.442,0,0,0,8.293-1.6,7.325,7.325,0,0,0,4.714-.029,8.2,8.2,0,0,0,2.388,3.1a10.277,10.277,0,0,0-.815,4.12A9.019,9.019,0,0,0,2.4,11.031,9.767,9.767,0,0,0,4.714,14.19,11.211,11.211,0,0,0,8.2,16.341a11.721,11.721,0,0,0,4.34.787ZM23.29,9.932a1.734,1.734,0,0,1-.833-.2,2.285,2.285,0,0,1-.7-.623l-4.1-5.164a1.824,1.824,0,0,1-.421-1.117,1.46,1.46,0,0,1,.439-1.089,1.441,1.441,0,0,1,1.044-.43,1.58,1.58,0,0,1,1.355.732l3.149,4.12L29.479-4.295A1.463,1.463,0,0,1,30.8-5.119a1.573,1.573,0,0,1,1.089.4,1.3,1.3,0,0,1,.449,1.007,1.449,1.449,0,0,1-.137.623q-.137.293-.266.513L24.754,9.09A1.622,1.622,0,0,1,23.29,9.932Z" transform="translate(0.51 23.029)"/><rect class="b" width="50" height="50"/></svg>