<svg xmlns="http://www.w3.org/2000/svg" width="50" height="50" viewBox="0 0 50 50"><defs><style>.a,.b{fill:#fff;}.b{opacity:0;}</style></defs><path class="a" d="M21.98-1.972v4.3L38.075-6.806a5.792,5.792,0,0,0-1.007-.714L24.141-14.881a5.9,5.9,0,0,0-1.08-.531,9.862,9.862,0,0,0-1.08-.33v4.651H19.471v-4.6a6.162,6.162,0,0,0-.989.311,7.469,7.469,0,0,0-.989.494L4.585-7.52a5.545,5.545,0,0,0-1.025.714L19.471,2.221V-1.972ZM19.471-4.187V-8.856H21.98v4.669Zm2.6,28.162a.729.729,0,0,0,.183-.064q.092-.046.183-.1l14.337-8.167a9.088,9.088,0,0,0,.842-.531,4.588,4.588,0,0,0,.677-.586l-3.7-1.849,1.135-2.252L39.3,12.219a7.251,7.251,0,0,0,.092-1.19V-3.235a5.52,5.52,0,0,0-.146-1.392L23.5,4.364l3.973,1.959L26.356,8.575,22.072,6.469ZM32.344,11.56,28.627,9.71l1.135-2.252,3.7,1.849ZM19.563,23.974V6.469L15.278,8.575,14.161,6.323l3.973-1.959L2.388-4.627a5.52,5.52,0,0,0-.146,1.392V11.029A6.523,6.523,0,0,0,2.333,12.2L5.9,10.425l1.135,2.252-3.7,1.849a4.378,4.378,0,0,0,.687.586q.394.275.833.531L19.215,23.81q.092.055.174.1A.6.6,0,0,0,19.563,23.974ZM9.291,11.56,8.174,9.308l3.717-1.849L13.008,9.71Z" transform="translate(4.009 21.991)"/><rect class="b" width="50" height="50"/></svg>