<svg xmlns="http://www.w3.org/2000/svg" width="50" height="50" viewBox="0 0 50 50"><defs><style>.a,.b{fill:#fff;}.b{opacity:0;}</style></defs><path class="a" d="M20.353,19.477a1.776,1.776,0,0,0,.668-.156,4.546,4.546,0,0,0,.668-.339,58.191,58.191,0,0,0,8.945-6.912,30.358,30.358,0,0,0,5.841-7.434,16.1,16.1,0,0,0,2.06-7.718,12.324,12.324,0,0,0-.778-4.459A10.728,10.728,0,0,0,35.6-11.047a9.61,9.61,0,0,0-3.241-2.289,10,10,0,0,0-4.019-.806,8.245,8.245,0,0,0-4.706,1.364,10.2,10.2,0,0,0-3.278,3.635,10.161,10.161,0,0,0-3.259-3.625,8.236,8.236,0,0,0-4.724-1.373,9.93,9.93,0,0,0-4.01.806,9.731,9.731,0,0,0-3.241,2.289,10.648,10.648,0,0,0-2.17,3.506,12.324,12.324,0,0,0-.778,4.459,16.1,16.1,0,0,0,2.06,7.718,30.261,30.261,0,0,0,5.85,7.434,58.587,58.587,0,0,0,8.954,6.912,4.546,4.546,0,0,0,.668.339A1.745,1.745,0,0,0,20.353,19.477Z" transform="translate(4.079 22.475)"/><rect class="b" width="50" height="50"/></svg>