<svg xmlns="http://www.w3.org/2000/svg" xmlns:xlink="http://www.w3.org/1999/xlink" width="1440" height="900" viewBox="0 0 1440 900"><defs><style>.a{fill:#fff;stroke:#707070;}.b{clip-path:url(#a);}.c,.e{opacity:0.15;}.c{fill:url(#b);}.d{stroke:#fff;stroke-width:1.5px;fill:url(#c);}.e{fill:url(#d);}</style><clipPath id="a"><rect class="a" width="1440" height="900"/></clipPath><radialGradient id="b" cx="0.5" cy="0.5" r="0.5" gradientUnits="objectBoundingBox"><stop offset="0" stop-color="#eb00ff"/><stop offset="1" stop-color="#0071ff" stop-opacity="0"/></radialGradient><linearGradient id="c" y1="0.876" x2="1" y2="0.035" gradientUnits="objectBoundingBox"><stop offset="0" stop-color="#ac26ff"/><stop offset="0.236" stop-color="#2a73f6"/><stop offset="0.498" stop-color="#70f3ca"/><stop offset="0.828" stop-color="#e8e809"/><stop offset="1" stop-color="#76c741"/></linearGradient><radialGradient id="d" cx="0.5" cy="0.5" r="0.5" gradientUnits="objectBoundingBox"><stop offset="0" stop-color="#0046e5"/><stop offset="1" stop-color="#008de5" stop-opacity="0"/></radialGradient></defs><g class="b"><rect class="c" width="1440" height="900" transform="translate(-334 -565)"/><g transform="translate(-18 361)"><path class="d" d="M-570.526-472.723a852.462,852.462,0,0,0,214.653,40.661c110.083,6.173,212.636-11.053,304.818-51.177C20.775-514.5,81.3-555.685,139.839-595.509c81.866-55.7,166.52-113.293,285.519-147.242,69.837-19.922,133.761-32.082,201.176-38.268,86.429-7.93,175.724-5.648,272.946,6.979l3-2.634-1.306-.171c-97.952-12.805-187.879-15.148-274.913-7.161-67.607,6.2-131.706,18.395-201.726,38.37C305.07-711.554,220.214-653.821,138.151-597.989c-58.421,39.747-118.831,80.848-190.4,112C-144-446.053-246.1-428.917-355.7-435.057a849.307,849.307,0,0,1-215.85-41.163l-1.971-.652Z" transform="translate(573.526 788.63)"/></g><rect class="e" width="1005" height="844" transform="translate(-619 -509)"/></g></svg>