<svg xmlns="http://www.w3.org/2000/svg" xmlns:xlink="http://www.w3.org/1999/xlink" width="195" height="36" viewBox="0 0 195 36"><defs><style>.a{fill:url(#a);}.b{fill:url(#b);}.c{fill:url(#c);}.d{fill:url(#d);}.e{fill:#000;}</style><linearGradient id="a" y1="0.584" x2="1.207" y2="0.893" gradientUnits="objectBoundingBox"><stop offset="0" stop-color="#00e5ce"/><stop offset="1" stop-color="#0071ff"/></linearGradient><linearGradient id="b" y1="0.5" x2="1" y2="0.5" gradientUnits="objectBoundingBox"><stop offset="0.36" stop-color="#00f9c6"/><stop offset="0.53" stop-color="#00d9d4"/><stop offset="0.9" stop-color="#0087f6"/><stop offset="1" stop-color="#0071ff"/></linearGradient><linearGradient id="c" x1="1.085" y1="0.381" x2="0.099" y2="0.611" gradientUnits="objectBoundingBox"><stop offset="0" stop-color="#0070ff"/><stop offset="1" stop-color="#00e5ce"/></linearGradient><linearGradient id="d" x1="-0.107" y1="0.693" x2="0.847" y2="0.315" gradientUnits="objectBoundingBox"><stop offset="0.2" stop-color="#00f9c6"/><stop offset="1" stop-color="#0071ff"/></linearGradient></defs><g transform="translate(0 0)"><path class="a" d="M15.25,11.774a14.021,14.021,0,0,0-2.57,3.616,14.888,14.888,0,0,0-1.42,7.565c-.322-.033-.648-.076-.98-.137l-.464-.094A14.917,14.917,0,0,1,1.792,17.3L1.56,17.01l-.021-.025a13.654,13.654,0,0,1-1.084-9.8A13.447,13.447,0,0,1,4.632.47a1.863,1.863,0,0,1,2.59.112L15.257,8.9a2.023,2.023,0,0,1,.426.659,2.1,2.1,0,0,1,0,1.559A2.017,2.017,0,0,1,15.25,11.774Z"/><path class="b" d="M38.134,18.463l-6.763,7.771A11.942,11.942,0,0,1,26.1,29.8a11.305,11.305,0,0,1-1.659.409,13.307,13.307,0,0,1-8.384-1.725c-6.926-3.4-13.485-12.6-15.03-15.657.083.108.17.217.256.322a14.621,14.621,0,0,0,8.488,5.525,11.282,11.282,0,0,0,4.083,0,12.264,12.264,0,0,0,6.58-3.616l.672-.7L27.215,8.01a1.41,1.41,0,0,1,1.995-.047l8.827,8.364a1.563,1.563,0,0,1,.1,2.137Z" transform="translate(0.501 4.027)"/><path class="c" d="M33.828,12.789a11.39,11.39,0,0,0-2.708.051,13.062,13.062,0,0,0-2.518.611c-.658-.622-1.313-1.247-1.974-1.869a1.4,1.4,0,0,0-1.991.047l-6.123,6.346-.672.7a12.709,12.709,0,0,1-4.5,3.027l-4.53-4.834c-.661-.723-1.319-1.414-1.977-2.119a1.788,1.788,0,0,1,0-2.4Q9.04,9.918,11.26,7.506l2.729-2.961a11.93,11.93,0,0,1,15.93-.788,3.707,3.707,0,0,1,.409.362v.018C31.155,5.242,33.679,8.887,33.828,12.789Z" transform="translate(3.092 0.596)"/><path class="d" d="M35.423,31.191a12.078,12.078,0,0,1-2.746,2.782,1.764,1.764,0,0,1-1.2.33,1.787,1.787,0,0,1-1.123-.549l-8.37-8.638a1.928,1.928,0,0,1-.035-2.638A17.014,17.014,0,0,0,24.234,19.4a14.245,14.245,0,0,0,2.286-7.353v-.4c-.149-3.884-2.673-7.512-3.491-8.588.215.223.429.446.641.673.152.158.3.32.454.482l.6.633.346.378.184.194c3.027,3.239,6.3,6.806,9.26,9.97a11.839,11.839,0,0,1,3.03,5.978c.017.112.038.227.055.36A13.394,13.394,0,0,1,35.423,31.191Z" transform="translate(10.269 1.69)"/></g><g transform="translate(0 0)"><path class="e" d="M53.574,16.886a5.06,5.06,0,0,0-1.441-1.863.556.556,0,0,1-.151-.179.572.572,0,0,1-.066-.227.591.591,0,0,1,.028-.237.58.58,0,0,1,.119-.2,5.291,5.291,0,0,0,1.29-3.528,5.193,5.193,0,0,0-5.532-5.316H40.4a1.257,1.257,0,0,0-.9.383,1.324,1.324,0,0,0-.373.92V23.5a1.32,1.32,0,0,0,.373.919,1.253,1.253,0,0,0,.9.38h8.187a5.253,5.253,0,0,0,5.487-5.5A5.817,5.817,0,0,0,53.574,16.886Zm-6.295-3.808H44a.562.562,0,0,1-.4-.17.592.592,0,0,1-.168-.411V9.984a.6.6,0,0,1,.043-.224.586.586,0,0,1,.124-.19.57.57,0,0,1,.185-.127A.557.557,0,0,1,44,9.4h3.28a1.649,1.649,0,0,1,.7.1,1.683,1.683,0,0,1,.6.383,1.737,1.737,0,0,1,.393.6,1.774,1.774,0,0,1,.121.712,1.818,1.818,0,0,1-.1.731,1.781,1.781,0,0,1-.386.624,1.725,1.725,0,0,1-.6.408,1.687,1.687,0,0,1-.71.122Zm.626,7.667h-3.9a.562.562,0,0,1-.4-.171.593.593,0,0,1-.167-.414V17.506a.593.593,0,0,1,.167-.414.563.563,0,0,1,.4-.171h3.906a1.844,1.844,0,0,1,1.266.588,1.95,1.95,0,0,1,0,2.646,1.844,1.844,0,0,1-1.266.588Z" transform="translate(19.312 2.938)"/><path class="e" d="M54.277,10.131v2.153a.706.706,0,0,0,.2.492.67.67,0,0,0,.48.2H61.38a1.36,1.36,0,0,1,.972.415,1.433,1.433,0,0,1,.4,1v1.174a1.433,1.433,0,0,1-.406.992,1.36,1.36,0,0,1-.968.412H54.955a.664.664,0,0,0-.265.055.678.678,0,0,0-.223.157.7.7,0,0,0-.146.233.711.711,0,0,0-.045.273v2.326a.706.706,0,0,0,.2.492.67.67,0,0,0,.48.2h7.176a1.357,1.357,0,0,1,.961.409,1.429,1.429,0,0,1,.406.983v1.281a1.442,1.442,0,0,1-.105.541,1.414,1.414,0,0,1-.3.458,1.373,1.373,0,0,1-.447.306,1.342,1.342,0,0,1-.527.106H51.353a1.36,1.36,0,0,1-.973-.413,1.433,1.433,0,0,1-.4-1V6.746a1.434,1.434,0,0,1,.4-1,1.36,1.36,0,0,1,.974-.414H62.131a1.357,1.357,0,0,1,.969.417,1.43,1.43,0,0,1,.4,1V8.024a1.433,1.433,0,0,1-.4.994,1.361,1.361,0,0,1-.966.417H54.955a.66.66,0,0,0-.26.052.673.673,0,0,0-.221.151.693.693,0,0,0-.147.226A.707.707,0,0,0,54.277,10.131Z" transform="translate(24.665 2.938)"/><path class="e" d="M89.169,5.18a7.266,7.266,0,0,0-7.6,7.592V23.465a1.434,1.434,0,0,0,.4,1,1.36,1.36,0,0,0,.974.414h1.542a1.343,1.343,0,0,0,.528-.107,1.371,1.371,0,0,0,.447-.306,1.412,1.412,0,0,0,.3-.459,1.442,1.442,0,0,0,.1-.542V20.93a.727.727,0,0,1,.212-.494.691.691,0,0,1,.487-.2h5.246a.671.671,0,0,1,.46.215.706.706,0,0,1,.187.481v2.534a1.446,1.446,0,0,0,.107.546,1.416,1.416,0,0,0,.3.461,1.376,1.376,0,0,0,.454.305,1.346,1.346,0,0,0,.534.1H95.4a1.343,1.343,0,0,0,.528-.107,1.371,1.371,0,0,0,.447-.306,1.415,1.415,0,0,0,.3-.459,1.445,1.445,0,0,0,.1-.542V12.771A7.289,7.289,0,0,0,89.169,5.18Zm3.294,10.252a.706.706,0,0,1-.2.492.67.67,0,0,1-.48.2H86.539a.691.691,0,0,1-.487-.2.728.728,0,0,1-.212-.494V12.919c0-2.2,1.266-3.568,3.3-3.568s3.326,1.378,3.326,3.579Z" transform="translate(40.254 2.854)"/><path class="e" d="M88.2,6.8V18.136a6.527,6.527,0,0,1-6.588,6.9,6.251,6.251,0,0,1-2.848-.618,6.42,6.42,0,0,1-2.285-1.851A6.4,6.4,0,0,1,74.2,24.414a6.238,6.238,0,0,1-2.847.618c-3.8,0-6.564-2.9-6.564-6.9V6.8a1.5,1.5,0,0,1,.421-1.04,1.419,1.419,0,0,1,1.013-.432h1.43a1.419,1.419,0,0,1,1.015.431A1.5,1.5,0,0,1,69.089,6.8V17.931c0,1.827.976,2.918,2.616,2.918s2.64-1.12,2.64-2.918V6.8a1.5,1.5,0,0,1,.421-1.04,1.419,1.419,0,0,1,1.013-.432h1.434a1.419,1.419,0,0,1,1.013.432,1.5,1.5,0,0,1,.421,1.04V17.931c0,1.795,1.011,2.918,2.64,2.918S83.9,19.773,83.9,17.931V6.8a1.5,1.5,0,0,1,.422-1.041,1.419,1.419,0,0,1,1.015-.431h1.43a1.419,1.419,0,0,1,1.013.432A1.5,1.5,0,0,1,88.2,6.8Z" transform="translate(31.95 2.938)"/><path class="e" d="M105.894,22.178v1.134a1.5,1.5,0,0,1-.423,1.048,1.423,1.423,0,0,1-1.021.434h-10a1.413,1.413,0,0,1-.554-.112,1.445,1.445,0,0,1-.47-.321,1.486,1.486,0,0,1-.314-.481,1.518,1.518,0,0,1-.11-.568V6.8a1.5,1.5,0,0,1,.428-1.042,1.425,1.425,0,0,1,1.02-.429h1.4a1.429,1.429,0,0,1,1.023.434,1.506,1.506,0,0,1,.425,1.048V19.924a.779.779,0,0,0,.218.542.739.739,0,0,0,.527.226h6.413A1.411,1.411,0,0,1,105,20.8a1.437,1.437,0,0,1,.469.322,1.493,1.493,0,0,1,.422,1.051Z" transform="translate(45.899 2.937)"/><path class="e" d="M114.918,22.1v1.3a1.423,1.423,0,0,1-.4.993,1.354,1.354,0,0,1-.969.411H103.386a1.354,1.354,0,0,1-.969-.411,1.423,1.423,0,0,1-.4-.993V6.739a1.427,1.427,0,0,1,.4-.994,1.356,1.356,0,0,1,.969-.413h1.559a1.356,1.356,0,0,1,.969.413,1.427,1.427,0,0,1,.4.994v13.28a.7.7,0,0,0,.2.487.664.664,0,0,0,.476.2h6.56a1.354,1.354,0,0,1,.964.406A1.424,1.424,0,0,1,114.918,22.1Z" transform="translate(50.35 2.938)"/><path class="e" d="M135.516,6.76V8a1.454,1.454,0,0,1-.409,1.015,1.381,1.381,0,0,1-.989.421h-3.252a.689.689,0,0,0-.5.21.725.725,0,0,0-.206.508V23.374a1.454,1.454,0,0,1-.41,1.015,1.38,1.38,0,0,1-.988.42h-1.521a1.381,1.381,0,0,1-.99-.42,1.454,1.454,0,0,1-.41-1.015V10.155a.73.73,0,0,0-.2-.508.694.694,0,0,0-.495-.21h-3.21a1.381,1.381,0,0,1-.99-.421A1.454,1.454,0,0,1,120.539,8V6.76a1.454,1.454,0,0,1,.409-1.015,1.381,1.381,0,0,1,.99-.42h12.186a1.382,1.382,0,0,1,.986.423A1.454,1.454,0,0,1,135.516,6.76Z" transform="translate(59.484 2.934)"/><path class="e" d="M124.568,6.825V7.941A1.524,1.524,0,0,1,124.14,9a1.44,1.44,0,0,1-1.026.439h-7.019a.742.742,0,0,0-.291.058.759.759,0,0,0-.246.168.791.791,0,0,0-.165.252.806.806,0,0,0-.057.3V12.2a.784.784,0,0,0,.223.548.749.749,0,0,0,.535.227h6.263a1.438,1.438,0,0,1,1.027.435,1.518,1.518,0,0,1,.431,1.051v1.016a1.518,1.518,0,0,1-.426,1.058,1.442,1.442,0,0,1-1.032.438h-6.263a.75.75,0,0,0-.535.227.784.784,0,0,0-.223.548V19.9a.789.789,0,0,0,.222.551.749.749,0,0,0,.537.228h7.019a1.438,1.438,0,0,1,1.029.437,1.519,1.519,0,0,1,.426,1.056v1.116a1.519,1.519,0,0,1-.426,1.056,1.438,1.438,0,0,1-1.029.437H112.492a1.438,1.438,0,0,1-1.029-.437,1.515,1.515,0,0,1-.429-1.056V6.825a1.515,1.515,0,0,1,.429-1.056,1.438,1.438,0,0,1,1.029-.437h10.622a1.44,1.44,0,0,1,1.028.438A1.518,1.518,0,0,1,124.568,6.825Z" transform="translate(54.731 2.938)"/></g></svg>