<svg xmlns="http://www.w3.org/2000/svg" width="60" height="60" viewBox="0 0 60 60"><defs><style>.a,.b{fill:#fff;}.a{opacity:0;}</style></defs><rect class="a" width="60" height="60"/><path class="b" d="M43.616-.325a1.962,1.962,0,0,0,2.219-2.219V-7.884A7.2,7.2,0,0,0,44-13.234a7.4,7.4,0,0,0-5.416-1.813H33.245a1.952,1.952,0,0,0-2.219,2.2,2.2,2.2,0,0,0,.571,1.626,2.231,2.231,0,0,0,1.648.571h5.032a3.244,3.244,0,0,1,2.34.791,3.145,3.145,0,0,1,.824,2.373v4.944A1.942,1.942,0,0,0,43.616-.325ZM9.492,28.525H14.81a1.962,1.962,0,0,0,2.241-2.2,2.175,2.175,0,0,0-.582-1.626,2.27,2.27,0,0,0-1.659-.571H9.756a3.165,3.165,0,0,1-2.318-.791,3.2,3.2,0,0,1-.8-2.373V16.022a1.952,1.952,0,0,0-2.2-2.219,1.952,1.952,0,0,0-2.2,2.219V21.34a7.235,7.235,0,0,0,1.835,5.372A7.4,7.4,0,0,0,9.492,28.525Zm23.752,0h5.339A7.4,7.4,0,0,0,44,26.712a7.235,7.235,0,0,0,1.835-5.372V16.022A1.962,1.962,0,0,0,43.616,13.8,2.161,2.161,0,0,0,42,14.375a2.257,2.257,0,0,0-.56,1.648v4.944a3.145,3.145,0,0,1-.824,2.373,3.244,3.244,0,0,1-2.34.791H33.245a1.952,1.952,0,0,0-2.219,2.2A1.952,1.952,0,0,0,33.245,28.525ZM4.438-.325A2.168,2.168,0,0,0,6.075-.907a2.265,2.265,0,0,0,.56-1.637V-7.488a3.2,3.2,0,0,1,.8-2.373,3.165,3.165,0,0,1,2.318-.791H14.81a1.962,1.962,0,0,0,2.241-2.2,1.962,1.962,0,0,0-2.241-2.2H9.492a7.4,7.4,0,0,0-5.416,1.813,7.2,7.2,0,0,0-1.835,5.35v5.339A1.952,1.952,0,0,0,4.438-.325ZM14.48,17.253H22.1a.939.939,0,0,0,.967-.967V8.662a.939.939,0,0,0-.967-.967H14.48a.949.949,0,0,0-.681.275.92.92,0,0,0-.286.692v7.625a.92.92,0,0,0,.286.692A.949.949,0,0,0,14.48,17.253Zm.945-1.912V9.606H21.16v5.735Zm1.67-1.692h2.4v-2.4h-2.4ZM14.48,5.783H22.1a.938.938,0,0,0,.692-.275.912.912,0,0,0,.275-.67V-2.808a.949.949,0,0,0-.275-.681.92.92,0,0,0-.692-.286H14.48a.93.93,0,0,0-.681.286.93.93,0,0,0-.286.681V4.838a.894.894,0,0,0,.286.67A.949.949,0,0,0,14.48,5.783Zm.945-1.912V-1.863H21.16V3.872Zm1.67-1.67h2.4v-2.4h-2.4Zm8.833,3.582h7.625a.938.938,0,0,0,.692-.275.912.912,0,0,0,.275-.67V-2.808a.949.949,0,0,0-.275-.681.92.92,0,0,0-.692-.286H25.928a.93.93,0,0,0-.681.286.93.93,0,0,0-.286.681V4.838a.894.894,0,0,0,.286.67A.949.949,0,0,0,25.928,5.783Zm.945-1.912V-1.863h5.735V3.872Zm1.67-1.67h2.4v-2.4h-2.4Zm-3.3,14.766h2.4v-2.4h-2.4Zm6.592,0h2.4v-2.4h-2.4Zm-3.3-3.318h2.4v-2.4h-2.4Zm-3.3-3.3h2.4v-2.4h-2.4Zm6.592,0h2.4v-2.4h-2.4Z" transform="translate(5.259 22.547)"/></svg>