<svg xmlns="http://www.w3.org/2000/svg" width="60" height="60" viewBox="0 0 60 60"><defs><style>.a,.b{fill:#fff;}.a{opacity:0;}</style></defs><rect class="a" width="60" height="60"/><path class="b" d="M43.616-.325a1.962,1.962,0,0,0,2.219-2.219V-7.884A7.2,7.2,0,0,0,44-13.234a7.4,7.4,0,0,0-5.416-1.813H33.245a1.952,1.952,0,0,0-2.219,2.2,2.2,2.2,0,0,0,.571,1.626,2.231,2.231,0,0,0,1.648.571h5.032a3.244,3.244,0,0,1,2.34.791,3.145,3.145,0,0,1,.824,2.373v4.944A1.942,1.942,0,0,0,43.616-.325ZM9.492,28.525H14.81a1.962,1.962,0,0,0,2.241-2.2,2.175,2.175,0,0,0-.582-1.626,2.27,2.27,0,0,0-1.659-.571H9.756a3.165,3.165,0,0,1-2.318-.791,3.2,3.2,0,0,1-.8-2.373V16.022a1.952,1.952,0,0,0-2.2-2.219,1.952,1.952,0,0,0-2.2,2.219V21.34a7.235,7.235,0,0,0,1.835,5.372A7.4,7.4,0,0,0,9.492,28.525Zm23.752,0h5.339A7.4,7.4,0,0,0,44,26.712a7.235,7.235,0,0,0,1.835-5.372V16.022A1.962,1.962,0,0,0,43.616,13.8,2.161,2.161,0,0,0,42,14.375a2.257,2.257,0,0,0-.56,1.648v4.944a3.145,3.145,0,0,1-.824,2.373,3.244,3.244,0,0,1-2.34.791H33.245a1.952,1.952,0,0,0-2.219,2.2A1.952,1.952,0,0,0,33.245,28.525ZM4.438-.325A2.168,2.168,0,0,0,6.075-.907a2.265,2.265,0,0,0,.56-1.637V-7.488a3.2,3.2,0,0,1,.8-2.373,3.165,3.165,0,0,1,2.318-.791H14.81a1.962,1.962,0,0,0,2.241-2.2,1.962,1.962,0,0,0-2.241-2.2H9.492a7.4,7.4,0,0,0-5.416,1.813,7.2,7.2,0,0,0-1.835,5.35v5.339A1.952,1.952,0,0,0,4.438-.325Zm8.943,19.116H34.695a1.487,1.487,0,0,0,1.208-.472,1.8,1.8,0,0,0,.4-1.2,6.284,6.284,0,0,0-.736-2.538,11.822,11.822,0,0,0-2.252-3.109A12.7,12.7,0,0,0,29.5,8.848a12.875,12.875,0,0,0-5.46-1.066,12.893,12.893,0,0,0-5.449,1.066,12.371,12.371,0,0,0-3.8,2.626,12.044,12.044,0,0,0-2.23,3.109,6.284,6.284,0,0,0-.736,2.538,1.835,1.835,0,0,0,.385,1.2A1.426,1.426,0,0,0,13.381,18.791ZM24.038,5.871a5.588,5.588,0,0,0,3.1-.857,6.353,6.353,0,0,0,2.23-2.384A7,7,0,0,0,30.19-.787a6.649,6.649,0,0,0-.824-3.285,6.488,6.488,0,0,0-2.23-2.373,5.678,5.678,0,0,0-3.1-.89,5.57,5.57,0,0,0-3.076.89,6.553,6.553,0,0,0-2.208,2.373A6.649,6.649,0,0,0,17.93-.787a6.935,6.935,0,0,0,.824,3.406,6.438,6.438,0,0,0,2.208,2.373A5.621,5.621,0,0,0,24.038,5.871Z" transform="translate(5.259 22.547)"/></svg>